<mxfile host="app.diagrams.net" modified="2023-01-09T18:39:09.550Z" agent="5.0 (Macintosh; Intel Mac OS X 10_15_7) AppleWebKit/537.36 (KHTML, like Gecko) Chrome/108.0.0.0 Safari/537.36" etag="xulxn3jtKnUR8pYqKzld" version="20.5.3" type="github" pages="2">
  <diagram id="nZyY6hC-ExKwK14pPue_" name="Data Engineering">
    <mxGraphModel dx="1263" dy="1712" grid="1" gridSize="10" guides="1" tooltips="1" connect="1" arrows="1" fold="1" page="1" pageScale="1" pageWidth="850" pageHeight="1100" math="0" shadow="0">
      <root>
        <mxCell id="0" />
        <mxCell id="1" parent="0" />
        <mxCell id="FVAaGnvplLi9wLP51LHt-39" value="" style="whiteSpace=wrap;html=1;aspect=fixed;labelBackgroundColor=none;fillColor=none;" vertex="1" parent="1">
          <mxGeometry x="830" y="330" width="250" height="250" as="geometry" />
        </mxCell>
        <mxCell id="FVAaGnvplLi9wLP51LHt-19" value="" style="whiteSpace=wrap;html=1;aspect=fixed;imageAspect=0;" vertex="1" parent="1">
          <mxGeometry x="210" y="-20" width="610" height="610" as="geometry" />
        </mxCell>
        <mxCell id="FVAaGnvplLi9wLP51LHt-36" value="" style="whiteSpace=wrap;html=1;imageAspect=0;labelBackgroundColor=#CCE5FF;fillColor=#FFFFCC;" vertex="1" parent="1">
          <mxGeometry x="338" y="20" width="220" height="212" as="geometry" />
        </mxCell>
        <mxCell id="FVAaGnvplLi9wLP51LHt-33" value="" style="whiteSpace=wrap;html=1;imageAspect=0;labelBackgroundColor=#CCE5FF;fillColor=#9AC7BF;" vertex="1" parent="1">
          <mxGeometry x="582" y="120" width="180" height="292" as="geometry" />
        </mxCell>
        <mxCell id="FVAaGnvplLi9wLP51LHt-30" value="" style="whiteSpace=wrap;html=1;imageAspect=0;labelBackgroundColor=#CCE5FF;fillColor=#CCE5FF;" vertex="1" parent="1">
          <mxGeometry x="248" y="307" width="322" height="233" as="geometry" />
        </mxCell>
        <mxCell id="FVAaGnvplLi9wLP51LHt-37" style="edgeStyle=orthogonalEdgeStyle;rounded=0;orthogonalLoop=1;jettySize=auto;html=1;" edge="1" parent="1" source="FVAaGnvplLi9wLP51LHt-1" target="FVAaGnvplLi9wLP51LHt-12">
          <mxGeometry relative="1" as="geometry" />
        </mxCell>
        <mxCell id="FVAaGnvplLi9wLP51LHt-1" value="AWS&lt;br&gt;Cloud Watch" style="whiteSpace=wrap;html=1;aspect=fixed;" vertex="1" parent="1">
          <mxGeometry x="408" y="110" width="80" height="80" as="geometry" />
        </mxCell>
        <mxCell id="FVAaGnvplLi9wLP51LHt-3" style="edgeStyle=orthogonalEdgeStyle;rounded=0;orthogonalLoop=1;jettySize=auto;html=1;" edge="1" parent="1" source="FVAaGnvplLi9wLP51LHt-2" target="FVAaGnvplLi9wLP51LHt-1">
          <mxGeometry relative="1" as="geometry" />
        </mxCell>
        <mxCell id="FVAaGnvplLi9wLP51LHt-2" value="Monitoring ETL Processes &amp;amp; Others" style="text;html=1;strokeColor=none;fillColor=none;align=center;verticalAlign=middle;whiteSpace=wrap;rounded=0;" vertex="1" parent="1">
          <mxGeometry x="388" y="50" width="120" height="30" as="geometry" />
        </mxCell>
        <mxCell id="FVAaGnvplLi9wLP51LHt-5" value="AWS&lt;br&gt;S3" style="whiteSpace=wrap;html=1;aspect=fixed;" vertex="1" parent="1">
          <mxGeometry x="268" y="352" width="80" height="80" as="geometry" />
        </mxCell>
        <mxCell id="FVAaGnvplLi9wLP51LHt-4" value="" style="outlineConnect=0;dashed=0;verticalLabelPosition=bottom;verticalAlign=top;align=center;html=1;shape=mxgraph.aws3.s3;fillColor=#E05243;gradientColor=none;" vertex="1" parent="1">
          <mxGeometry x="328" y="412" width="36.5" height="33" as="geometry" />
        </mxCell>
        <mxCell id="FVAaGnvplLi9wLP51LHt-9" style="edgeStyle=orthogonalEdgeStyle;rounded=0;orthogonalLoop=1;jettySize=auto;html=1;entryX=0;entryY=0.5;entryDx=0;entryDy=0;" edge="1" parent="1" source="FVAaGnvplLi9wLP51LHt-6" target="FVAaGnvplLi9wLP51LHt-5">
          <mxGeometry relative="1" as="geometry" />
        </mxCell>
        <mxCell id="FVAaGnvplLi9wLP51LHt-6" value="3rd Party Process&lt;br&gt;Push Data" style="shape=parallelogram;perimeter=parallelogramPerimeter;whiteSpace=wrap;html=1;fixedSize=1;" vertex="1" parent="1">
          <mxGeometry x="65" y="362" width="120" height="60" as="geometry" />
        </mxCell>
        <mxCell id="FVAaGnvplLi9wLP51LHt-13" style="edgeStyle=orthogonalEdgeStyle;rounded=0;orthogonalLoop=1;jettySize=auto;html=1;" edge="1" parent="1" source="FVAaGnvplLi9wLP51LHt-12" target="FVAaGnvplLi9wLP51LHt-5">
          <mxGeometry relative="1" as="geometry" />
        </mxCell>
        <mxCell id="FVAaGnvplLi9wLP51LHt-16" style="edgeStyle=orthogonalEdgeStyle;rounded=0;orthogonalLoop=1;jettySize=auto;html=1;entryX=0;entryY=0.5;entryDx=0;entryDy=0;" edge="1" parent="1" source="FVAaGnvplLi9wLP51LHt-12" target="FVAaGnvplLi9wLP51LHt-15">
          <mxGeometry relative="1" as="geometry" />
        </mxCell>
        <mxCell id="FVAaGnvplLi9wLP51LHt-18" style="edgeStyle=orthogonalEdgeStyle;rounded=0;orthogonalLoop=1;jettySize=auto;html=1;entryX=0;entryY=0.5;entryDx=0;entryDy=0;" edge="1" parent="1" source="FVAaGnvplLi9wLP51LHt-12" target="FVAaGnvplLi9wLP51LHt-17">
          <mxGeometry relative="1" as="geometry" />
        </mxCell>
        <mxCell id="FVAaGnvplLi9wLP51LHt-12" value="AWS&lt;br&gt;Lambda" style="whiteSpace=wrap;html=1;aspect=fixed;" vertex="1" parent="1">
          <mxGeometry x="455" y="352" width="80" height="80" as="geometry" />
        </mxCell>
        <mxCell id="FVAaGnvplLi9wLP51LHt-11" value="" style="sketch=0;points=[[0,0,0],[0.25,0,0],[0.5,0,0],[0.75,0,0],[1,0,0],[0,1,0],[0.25,1,0],[0.5,1,0],[0.75,1,0],[1,1,0],[0,0.25,0],[0,0.5,0],[0,0.75,0],[1,0.25,0],[1,0.5,0],[1,0.75,0]];outlineConnect=0;fontColor=#232F3E;gradientColor=#F78E04;gradientDirection=north;fillColor=#D05C17;strokeColor=#ffffff;dashed=0;verticalLabelPosition=bottom;verticalAlign=top;align=center;html=1;fontSize=12;fontStyle=0;aspect=fixed;shape=mxgraph.aws4.resourceIcon;resIcon=mxgraph.aws4.lambda;" vertex="1" parent="1">
          <mxGeometry x="515" y="416" width="25" height="25" as="geometry" />
        </mxCell>
        <mxCell id="FVAaGnvplLi9wLP51LHt-15" value="AWS&lt;br&gt;Redshift" style="whiteSpace=wrap;html=1;aspect=fixed;" vertex="1" parent="1">
          <mxGeometry x="645" y="159" width="80" height="80" as="geometry" />
        </mxCell>
        <mxCell id="FVAaGnvplLi9wLP51LHt-14" value="" style="outlineConnect=0;dashed=0;verticalLabelPosition=bottom;verticalAlign=top;align=center;html=1;shape=mxgraph.aws3.redshift;fillColor=#2E73B8;gradientColor=none;" vertex="1" parent="1">
          <mxGeometry x="705" y="219" width="27.5" height="25" as="geometry" />
        </mxCell>
        <mxCell id="FVAaGnvplLi9wLP51LHt-17" value="PostgresDB" style="whiteSpace=wrap;html=1;aspect=fixed;" vertex="1" parent="1">
          <mxGeometry x="645" y="319" width="80" height="80" as="geometry" />
        </mxCell>
        <mxCell id="FVAaGnvplLi9wLP51LHt-20" value="RDBS" style="text;html=1;strokeColor=none;fillColor=none;align=center;verticalAlign=middle;whiteSpace=wrap;rounded=0;" vertex="1" parent="1">
          <mxGeometry x="655" y="127" width="60" height="30" as="geometry" />
        </mxCell>
        <mxCell id="FVAaGnvplLi9wLP51LHt-21" value="RDBS&lt;br&gt;Marketing" style="text;html=1;strokeColor=none;fillColor=none;align=center;verticalAlign=middle;whiteSpace=wrap;rounded=0;" vertex="1" parent="1">
          <mxGeometry x="655" y="289" width="60" height="30" as="geometry" />
        </mxCell>
        <mxCell id="FVAaGnvplLi9wLP51LHt-49" style="edgeStyle=orthogonalEdgeStyle;rounded=0;orthogonalLoop=1;jettySize=auto;html=1;entryX=0.5;entryY=1;entryDx=0;entryDy=0;fontSize=8;fontColor=#CC0000;" edge="1" parent="1" source="FVAaGnvplLi9wLP51LHt-22" target="FVAaGnvplLi9wLP51LHt-5">
          <mxGeometry relative="1" as="geometry">
            <Array as="points">
              <mxPoint x="916" y="560" />
              <mxPoint x="308" y="560" />
            </Array>
          </mxGeometry>
        </mxCell>
        <mxCell id="FVAaGnvplLi9wLP51LHt-22" value="Snowflake" style="whiteSpace=wrap;html=1;aspect=fixed;" vertex="1" parent="1">
          <mxGeometry x="876" y="460" width="80" height="80" as="geometry" />
        </mxCell>
        <mxCell id="FVAaGnvplLi9wLP51LHt-25" style="edgeStyle=orthogonalEdgeStyle;rounded=0;orthogonalLoop=1;jettySize=auto;html=1;entryX=1;entryY=0.5;entryDx=0;entryDy=0;" edge="1" parent="1" source="FVAaGnvplLi9wLP51LHt-23" target="FVAaGnvplLi9wLP51LHt-5">
          <mxGeometry relative="1" as="geometry" />
        </mxCell>
        <mxCell id="FVAaGnvplLi9wLP51LHt-23" value="AWS&lt;br&gt;Lambda" style="whiteSpace=wrap;html=1;aspect=fixed;" vertex="1" parent="1">
          <mxGeometry x="480" y="450" width="80" height="80" as="geometry" />
        </mxCell>
        <mxCell id="FVAaGnvplLi9wLP51LHt-24" value="" style="sketch=0;points=[[0,0,0],[0.25,0,0],[0.5,0,0],[0.75,0,0],[1,0,0],[0,1,0],[0.25,1,0],[0.5,1,0],[0.75,1,0],[1,1,0],[0,0.25,0],[0,0.5,0],[0,0.75,0],[1,0.25,0],[1,0.5,0],[1,0.75,0]];outlineConnect=0;fontColor=#232F3E;gradientColor=#F78E04;gradientDirection=north;fillColor=#D05C17;strokeColor=#ffffff;dashed=0;verticalLabelPosition=bottom;verticalAlign=top;align=center;html=1;fontSize=12;fontStyle=0;aspect=fixed;shape=mxgraph.aws4.resourceIcon;resIcon=mxgraph.aws4.lambda;" vertex="1" parent="1">
          <mxGeometry x="540" y="505" width="25" height="25" as="geometry" />
        </mxCell>
        <mxCell id="FVAaGnvplLi9wLP51LHt-26" value="Data Lake&lt;br&gt;Replica Layer" style="text;html=1;strokeColor=none;fillColor=none;align=center;verticalAlign=middle;whiteSpace=wrap;rounded=0;" vertex="1" parent="1">
          <mxGeometry x="876" y="410" width="80" height="30" as="geometry" />
        </mxCell>
        <mxCell id="FVAaGnvplLi9wLP51LHt-28" value="" style="shape=image;html=1;verticalAlign=top;verticalLabelPosition=bottom;labelBackgroundColor=#ffffff;imageAspect=0;aspect=fixed;image=https://cdn4.iconfinder.com/data/icons/free-line-christmas-icons/24/Snowflake-128.png" vertex="1" parent="1">
          <mxGeometry x="936" y="508" width="30" height="30" as="geometry" />
        </mxCell>
        <mxCell id="FVAaGnvplLi9wLP51LHt-29" value="Storage" style="text;html=1;strokeColor=none;fillColor=none;align=center;verticalAlign=middle;whiteSpace=wrap;rounded=0;" vertex="1" parent="1">
          <mxGeometry x="278" y="320" width="60" height="30" as="geometry" />
        </mxCell>
        <mxCell id="FVAaGnvplLi9wLP51LHt-31" value="AWS Processing" style="text;html=1;strokeColor=none;fillColor=none;align=center;verticalAlign=middle;whiteSpace=wrap;rounded=0;labelBackgroundColor=#CCE5FF;fontStyle=1" vertex="1" parent="1">
          <mxGeometry x="364.5" y="307" width="111" height="30" as="geometry" />
        </mxCell>
        <mxCell id="FVAaGnvplLi9wLP51LHt-32" value="" style="sketch=0;aspect=fixed;html=1;points=[];align=center;image;fontSize=12;image=img/lib/mscae/Azure_Database_for_PostgreSQL_servers.svg;labelBackgroundColor=#CCE5FF;fillColor=#CCE5FF;" vertex="1" parent="1">
          <mxGeometry x="705" y="373.58000000000004" width="28" height="36.84" as="geometry" />
        </mxCell>
        <mxCell id="FVAaGnvplLi9wLP51LHt-35" value="AWS Reporting" style="text;html=1;strokeColor=none;fillColor=none;align=center;verticalAlign=middle;whiteSpace=wrap;rounded=0;labelBackgroundColor=#CCE5FF;fontStyle=1" vertex="1" parent="1">
          <mxGeometry x="622" y="97" width="111" height="30" as="geometry" />
        </mxCell>
        <mxCell id="FVAaGnvplLi9wLP51LHt-38" value="AWS Monitoring" style="text;html=1;strokeColor=none;fillColor=none;align=center;verticalAlign=middle;whiteSpace=wrap;rounded=0;labelBackgroundColor=#CCE5FF;fontStyle=1" vertex="1" parent="1">
          <mxGeometry x="392.5" y="-10" width="111" height="30" as="geometry" />
        </mxCell>
        <mxCell id="FVAaGnvplLi9wLP51LHt-40" value="&lt;b&gt;&lt;font style=&quot;font-size: 18px;&quot;&gt;AWS Infrastructure&lt;/font&gt;&lt;/b&gt;" style="text;html=1;strokeColor=none;fillColor=none;align=center;verticalAlign=middle;whiteSpace=wrap;rounded=0;labelBackgroundColor=none;" vertex="1" parent="1">
          <mxGeometry x="240" width="60" height="30" as="geometry" />
        </mxCell>
        <mxCell id="FVAaGnvplLi9wLP51LHt-41" value="&lt;b&gt;&lt;font style=&quot;font-size: 18px;&quot;&gt;Snowflake&lt;br&gt;Layer&lt;br&gt;&lt;/font&gt;&lt;/b&gt;" style="text;html=1;strokeColor=none;fillColor=none;align=center;verticalAlign=middle;whiteSpace=wrap;rounded=0;labelBackgroundColor=none;" vertex="1" parent="1">
          <mxGeometry x="956" y="350" width="60" height="30" as="geometry" />
        </mxCell>
        <mxCell id="FVAaGnvplLi9wLP51LHt-43" value="&lt;font style=&quot;font-size: 10px;&quot;&gt;Alarms&lt;/font&gt;" style="text;html=1;strokeColor=none;fillColor=none;align=center;verticalAlign=middle;whiteSpace=wrap;rounded=0;labelBackgroundColor=none;fontSize=18;fontColor=#FF3333;fontStyle=1" vertex="1" parent="1">
          <mxGeometry x="342" y="130" width="52" height="20" as="geometry" />
        </mxCell>
        <mxCell id="FVAaGnvplLi9wLP51LHt-44" value="&lt;font style=&quot;font-size: 10px;&quot;&gt;Metrics&lt;/font&gt;" style="text;html=1;strokeColor=none;fillColor=none;align=center;verticalAlign=middle;whiteSpace=wrap;rounded=0;labelBackgroundColor=none;fontSize=18;fontColor=#FF3333;fontStyle=1" vertex="1" parent="1">
          <mxGeometry x="342" y="110" width="52" height="20" as="geometry" />
        </mxCell>
        <mxCell id="FVAaGnvplLi9wLP51LHt-45" value="&lt;font style=&quot;font-size: 10px;&quot;&gt;Triggers&lt;/font&gt;" style="text;html=1;strokeColor=none;fillColor=none;align=center;verticalAlign=middle;whiteSpace=wrap;rounded=0;labelBackgroundColor=none;fontSize=18;fontColor=#FF3333;fontStyle=1" vertex="1" parent="1">
          <mxGeometry x="342" y="150" width="52" height="20" as="geometry" />
        </mxCell>
        <mxCell id="FVAaGnvplLi9wLP51LHt-48" style="edgeStyle=orthogonalEdgeStyle;rounded=0;orthogonalLoop=1;jettySize=auto;html=1;fontSize=8;fontColor=#CC0000;" edge="1" parent="1" source="FVAaGnvplLi9wLP51LHt-46" target="FVAaGnvplLi9wLP51LHt-1">
          <mxGeometry relative="1" as="geometry">
            <Array as="points">
              <mxPoint x="540" y="30" />
              <mxPoint x="540" y="130" />
            </Array>
          </mxGeometry>
        </mxCell>
        <mxCell id="FVAaGnvplLi9wLP51LHt-46" value="&lt;font color=&quot;#cc0000&quot;&gt;SNS&lt;br&gt;&lt;/font&gt;&lt;font color=&quot;#000000&quot; style=&quot;font-size: 8px;&quot;&gt;Simple Notifications System&lt;/font&gt;" style="rounded=1;whiteSpace=wrap;html=1;labelBackgroundColor=none;strokeColor=#000000;fontSize=10;fontColor=#FF3333;fillColor=none;" vertex="1" parent="1">
          <mxGeometry x="612" width="120" height="60" as="geometry" />
        </mxCell>
        <mxCell id="FVAaGnvplLi9wLP51LHt-47" value="" style="sketch=0;outlineConnect=0;fontColor=#232F3E;gradientColor=none;fillColor=#232F3D;strokeColor=none;dashed=0;verticalLabelPosition=bottom;verticalAlign=top;align=center;html=1;fontSize=12;fontStyle=0;aspect=fixed;pointerEvents=1;shape=mxgraph.aws4.user;labelBackgroundColor=none;" vertex="1" parent="1">
          <mxGeometry x="664" y="40" width="27" height="27" as="geometry" />
        </mxCell>
        <mxCell id="FVAaGnvplLi9wLP51LHt-50" value="GCP&lt;br&gt;SQL SERVER normaliaztion process" style="whiteSpace=wrap;html=1;aspect=fixed;" vertex="1" parent="1">
          <mxGeometry x="80" y="191.5" width="80" height="80" as="geometry" />
        </mxCell>
      </root>
    </mxGraphModel>
  </diagram>
  <diagram id="DQi6ea0I1D5cvPG4SmhP" name="WebInsights">
    <mxGraphModel dx="1175" dy="530" grid="1" gridSize="10" guides="1" tooltips="1" connect="1" arrows="1" fold="1" page="1" pageScale="1" pageWidth="850" pageHeight="1100" math="0" shadow="0">
      <root>
        <mxCell id="0" />
        <mxCell id="1" parent="0" />
      </root>
    </mxGraphModel>
  </diagram>
</mxfile>
